<svg viewBox="-5 0 135 222" fill="none" xmlns="http://www.w3.org/2000/svg">
<path d="M107.103 75.9443C124.225 93.468 124.225 121.609 107.103 139.133L107.099 139.137L55.877 191.039C48.8958 198.697 43.889 208.422 40.8799 218.174L40.4561 219.548L39.3154 218.673C37.4022 217.204 34.7069 215.528 32.6133 213.386L32.1064 212.866C14.9843 195.342 14.9843 167.201 32.1064 149.678L32.1133 149.671L105.68 75.9375L106.395 75.2207L107.103 75.9443ZM81.6289 2.63672C83.4512 4.03547 85.9818 5.62291 88.0273 7.62207H88.5439L88.8379 7.92285C105.96 25.4466 105.96 53.5876 88.8379 71.1113L88.833 71.1162L15.2676 145.369L14.5518 146.091L13.8418 145.364C-3.28039 127.841 -3.28039 99.6995 13.8418 82.1758L13.8447 82.1719L65.0879 30.2471C72.5592 22.599 77.5526 12.8963 80.0508 3.18066L80.4277 1.71484L81.6289 2.63672Z" fill="url(#paint0_linear_37_256)" stroke="url(#paint1_linear_37_256)" stroke-width="2"/>
<defs>
<linearGradient id="paint0_linear_37_256" x1="60.472" y1="3.42969" x2="60.472" y2="217.879" gradientUnits="userSpaceOnUse">
<stop stop-color="#FFB021"/>
<stop offset="1" stop-color="#F56F10"/>
</linearGradient>
<linearGradient id="paint1_linear_37_256" x1="2" y1="111.455" x2="118.944" y2="109.854" gradientUnits="userSpaceOnUse">
<stop stop-color="#F56F10"/>
<stop offset="1" stop-color="#F9C972"/>
</linearGradient>
</defs>
</svg>
