<svg id="Layer_1" xmlns="http://www.w3.org/2000/svg" viewBox="0 0 99.4 18.6"><style>.st0{fill:#2397d4}.st1{fill:#2f4a75}</style><title>ebanx</title><path class="st0" d="M.2 0l8.4 6.9L14.7.3c.1-.1 0-.2-.1-.2H.2zm0 18.6l8.4-6.9 6.1 6.6c.1.1 0 .2-.1.2H.2z"/><path class="st1" d="M.3.1l11.2 9.1c.1.1.1.2 0 .2L.3 18.5c-.1.1-.3 0-.3-.1V.2C0 0 .2 0 .3.1zm46.2 13.1c0 3.2-2.6 5.4-5.8 5.4H33c-.1 0-.2-.1-.2-.2V.2c.1-.1.1-.2.2-.2h7.2c3.1 0 5.6 2.1 5.6 5.2 0 1.6-.7 2.8-1.7 3.7 1.5.9 2.4 2.4 2.4 4.3zm-10-9.6v3.8c0 .1.1.2.2.2h3.5c1.2 0 2.1-1 2-2.2-.1-1-1-1.8-2.1-1.8h-3.4c-.1-.2-.2-.1-.2 0zm6.4 9.2c-.1-1.1-1.1-2-2.2-2h-4.2v4.4h4.2c1.3 0 2.3-1.1 2.2-2.4zm16.7 2.4h-7.2c-.1 0-.1 0-.1.1l-1 3.1c0 .1-.1.1-.1.1h-3.7c-.1 0-.2-.1-.1-.2L53.8 0c0-.1.1-.1.1-.1h4.3c.1 0 .1 0 .1.1l6.4 18.3c0 .1 0 .2-.1.2h-3.7c-.1 0-.1 0-.1-.1l-1-3.1c-.1 0-.1-.1-.2-.1zm-1.1-3.6l-2.4-7c0-.1-.2-.1-.3 0l-2.4 7c0 .1 0 .2.1.2h4.7c.3 0 .3-.1.3-.2zM81 .2v18.2c0 .1-.1.1-.1.1h-2.6s-.1 0-.1-.1L70.3 7.2v11.2c0 .1-.1.1-.1.1h-3.4c-.1 0-.1-.1-.1-.1V.2c0-.1.1-.1.1-.1h2.6s.1 0 .1.1l7.9 11.2V.2c0-.1.1-.1.1-.1h3.4c0-.1.1 0 .1.1zm13.4 18.3L91 12.8c-.1-.1-.2-.1-.3 0l-3.4 5.7-.1.1h-3.8c-.1 0-.2-.1-.1-.2l5.5-9.2V9L83.6.3c-.1-.1 0-.2.1-.2h3.8c.1 0 .1 0 .1.1l3.1 5.3c.1.1.2.1.3 0L94.1.2l.1-.1H98c.1 0 .2.1.1.2L92.9 9v.2l5.5 9.2c.1.1 0 .2-.1.2h-3.8c-.1 0-.1-.1-.1-.1zm-71.1-3.4c-.5-.1-.8-.5-.8-1v-3c0-.1.1-.1.1-.1h6.7c.1 0 .1-.1.1-.1V7.6c0-.1-.1-.1-.1-.1h-6.7c-.1 0-.1-.1-.1-.1V3.7c0-.1.1-.1.1-.1H30c.1 0 .1-.1.1-.1V.2c.1-.1 0-.2-.1-.2H19c-.1 0-.1.1-.1.1v15c0 1.9 1.6 3.5 3.5 3.5h8v-3.5h-7.1z"/></svg>