<svg version="1.1" id="Layer_1" xmlns:x="ns_extend;" xmlns:i="ns_ai;" xmlns:graph="ns_graphs;" xmlns="http://www.w3.org/2000/svg" xmlns:xlink="http://www.w3.org/1999/xlink" x="0px" y="0px" viewBox="0 0 289.3 53" style="enable-background:new 0 0 289.3 53;" xml:space="preserve">
 <style type="text/css">
  .st0{fill:#FFFFFF;}
	.st1{stroke:#000000;stroke-width:0.3464;}
 </style>
 <metadata>
  <sfw xmlns="ns_sfw;">
   <slices>
   </slices>
   <sliceSourceBounds bottomLeftOrigin="true" height="53.4" width="289.7" x="272.5" y="49.8">
   </sliceSourceBounds>
  </sfw>
 </metadata>
 <g>
  <path class="st0" d="M266.8,14h6.4l11.4,18.6h0.4l-0.4-3.3V14h4.7v24.8h-6.4l-11.4-18.6h-0.4l0.4,3.3v15.3h-4.7V14z">
  </path>
  <path class="st0" d="M248.4,13.2c8,0,13.8,5.8,13.8,13.2s-5.8,13.2-13.8,13.2c-8,0-13.8-5.8-13.8-13.2S240.3,13.2,248.4,13.2z
		 M248.4,35.1c5.2,0,8.9-3.7,8.9-8.7s-3.7-8.7-8.9-8.7c-5.2,0-8.9,3.7-8.9,8.7S243.2,35.1,248.4,35.1z">
  </path>
  <path class="st0" d="M225.3,14h4.7v24.8h-4.7V14z">
  </path>
  <path class="st0" d="M199.5,14H222v4.5h-8.9v20.2h-4.7V18.6h-8.9V14z">
  </path>
  <path class="st0" d="M181.9,14h11.2l7,24.8h-4.7l-1.7-6h-12.4l-1.7,6h-4.7L181.9,14z M192.5,28.3l-2.7-9.7h-4.5l-2.7,9.7H192.5z">
  </path>
  <path class="st0" d="M153,14h22.5v4.5h-8.9v20.2h-4.7V18.6H153V14z">
  </path>
  <path class="st0" d="M134.6,31.4c0.2,0.7,0.6,1.4,1.1,2c0.9,1,2.5,1.9,5.3,1.9c4.1,0,5.8-1.7,5.8-3.3c0-2.6-4-3.3-8-4.1
		c-4.1-0.9-8-2.6-8-7.2c0-3.9,3.5-7.4,10.1-7.4c4.6,0,7.3,1.9,8.8,3.7c0.9,1.1,1.5,2.4,1.9,3.7h-5c-0.2-0.5-0.5-1.1-1-1.5
		c-0.8-0.8-2.3-1.6-4.7-1.6c-3.7,0-5.2,1.2-5.2,2.9c0,1.9,2.3,2.7,5.1,3.3c4.7,0.9,11,2.1,11,8c0,4.1-3.7,7.8-10.7,7.8
		c-5.2,0-8.2-2-9.7-4.1c-0.9-1.2-1.5-2.6-1.8-4.1L134.6,31.4L134.6,31.4z">
  </path>
  <path class="st0" d="M120.5,26.4c0-7.7-6.2-13.2-14.8-13.2H94.7v26.4h11.1C114.3,39.6,120.5,34.1,120.5,26.4z M102.6,32.9v-13h3
		c4.1,0,6.7,2.5,6.7,6.5s-2.6,6.5-6.7,6.5H102.6z">
  </path>
  <path class="st0" d="M86,30.3c0.8-0.4,1.6-1,2.3-1.7c1.6-1.6,2.3-3.6,2.3-5.9c0-5.6-4.4-9.5-10.7-9.5H65.7v26.4h7.9V32h4.8l4.3,7.6
		h7.9l-5.1-9.1L86,30.3z M79.2,25.7h-5.5v-6h5.5c1.9,0,3.4,1.3,3.4,3C82.6,24.4,81.1,25.7,79.2,25.7z">
  </path>
  <path class="st0" d="M26.5,38.3L26.5,38.3h-0.1L0.2,48v-8.4l26.3-9.7l26.3,9.7V48L26.5,38.3z">
  </path>
  <path class="st1" d="M26.5,38.5L0,48.3L9.8,53l16.7-6.2L43.2,53l9.8-4.7L26.5,38.5z">
  </path>
  <path class="st0" d="M26.4,14.7L26.4,14.7h0.1L52.8,5v8.4l-26.3,9.7L0.2,13.4V5L26.4,14.7z">
  </path>
  <path class="st1" d="M26.5,14.5L53,4.7L43.2,0L26.5,6.2L9.8,0L0,4.7L26.5,14.5z">
  </path>
 </g>
</svg>