<svg width="554" height="222" viewBox="0 0 554 222" fill="none" xmlns="http://www.w3.org/2000/svg">
<path d="M107.103 75.9443C124.225 93.468 124.225 121.609 107.103 139.133L107.099 139.137L55.877 191.039C48.8958 198.697 43.889 208.422 40.8799 218.174L40.4561 219.548L39.3154 218.673C37.4022 217.204 34.7069 215.528 32.6133 213.386L32.1064 212.866C14.9843 195.342 14.9843 167.201 32.1064 149.678L32.1133 149.671L105.68 75.9375L106.395 75.2207L107.103 75.9443ZM81.6289 2.63672C83.4512 4.03547 85.9818 5.62291 88.0273 7.62207H88.5439L88.8379 7.92285C105.96 25.4466 105.96 53.5876 88.8379 71.1113L88.833 71.1162L15.2676 145.369L14.5518 146.091L13.8418 145.364C-3.28039 127.841 -3.28039 99.6995 13.8418 82.1758L13.8447 82.1719L65.0879 30.2471C72.5592 22.599 77.5526 12.8963 80.0508 3.18066L80.4277 1.71484L81.6289 2.63672Z" fill="url(#paint0_linear_37_256)" stroke="url(#paint1_linear_37_256)" stroke-width="2"/>
<path d="M298.187 84.6919C278.908 72.7492 251.511 80.0187 243.901 83.1342C240.857 84.1727 241.364 88.3266 242.886 92.9999C243.901 97.1539 245.93 102.346 245.93 102.346C245.93 102.346 265.21 95.0769 278.401 99.7501C281.952 100.789 283.474 103.385 282.459 112.212C282.459 112.212 255.063 108.058 241.871 118.443C237.305 122.078 233.754 129.347 233.754 137.136C233.754 164.137 265.717 164.137 271.298 164.137C283.981 164.137 294.128 162.06 301.231 157.387C303.261 155.829 309.349 153.233 309.349 142.328V104.423C308.842 98.7116 306.812 89.8844 298.187 84.6919ZM270.79 143.886C260.643 143.886 259.629 138.694 259.629 136.617C259.629 134.54 261.658 128.828 269.776 128.309C278.401 127.79 281.952 128.309 281.952 128.309V141.809C280.937 141.809 277.386 143.886 270.79 143.886Z" fill="white"/>
<path d="M475.246 88.3291C466.621 79.5019 455.46 78.4634 449.879 78.4634C445.313 78.4634 432.122 78.9826 421.975 88.3291C410.813 99.2333 409.291 112.734 409.291 120.003C409.291 150.12 429.585 164.139 454.445 164.139C457.996 164.139 468.651 164.139 477.276 159.985C479.305 158.947 480.32 157.908 481.335 157.389C483.364 155.831 481.335 150.12 479.812 146.485C478.29 142.331 476.768 140.254 476.768 140.254C475.246 140.773 466.621 143.369 456.474 143.369C442.269 143.369 435.673 135.581 435.673 129.869H474.739C480.827 129.869 485.901 125.196 485.901 118.445C486.408 108.061 483.871 96.6371 475.246 88.3291ZM436.688 111.695C436.688 110.138 437.703 98.7141 451.401 98.7141C456.474 98.7141 464.085 101.31 464.085 111.695H436.688Z" fill="white"/>
<path d="M338.263 56.1333C327.609 56.1333 324.564 57.691 324.564 57.691V157.387C324.564 161.541 329.131 164.137 338.263 164.137C348.917 164.137 351.961 162.579 351.961 162.579V63.4028C351.961 58.7295 347.395 56.1333 338.263 56.1333Z" fill="white"/>
<path d="M381.388 56.1333C370.734 56.1333 367.689 57.691 367.689 57.691V157.387C367.689 161.541 372.256 164.137 381.388 164.137C392.042 164.137 395.086 162.579 395.086 162.579V63.4028C395.086 58.7295 390.52 56.1333 381.388 56.1333Z" fill="white"/>
<path d="M500.104 157.386C500.104 161.54 504.67 164.656 513.802 164.656C524.456 164.656 527.5 163.098 527.5 163.098V109.096C527.5 105.462 529.53 102.346 534.096 102.346H550.838C554.897 102.346 553.883 95.5959 553.883 88.8457C553.883 82.0955 553.375 80.0185 552.868 79.4992L552.36 78.98H527.5C510.758 79.4992 500.104 88.8457 500.104 100.269C500.104 100.269 500.104 155.829 500.104 157.386Z" fill="white"/>
<path d="M219.543 161.542C222.08 160.504 223.095 159.985 224.11 159.465C226.646 157.908 224.617 152.196 223.602 147.523C222.588 142.849 221.066 140.253 221.066 140.253C219.543 140.772 216.499 141.811 211.426 141.811C208.382 141.811 201.279 141.292 201.279 134.022V105.983H217.514C221.066 105.983 220.558 100.271 220.558 94.04C220.558 85.732 219.543 85.2128 219.543 85.2128H201.279C201.279 85.2128 201.279 73.2701 201.279 71.7123C201.279 67.5584 196.713 64.4429 187.58 64.4429C176.926 64.4429 173.882 66.0006 173.882 66.0006V85.2128C173.882 85.2128 163.735 87.2898 161.198 88.3283C161.198 88.3283 160.184 91.4438 160.184 95.5978C160.184 98.7132 160.691 105.983 162.72 105.983H173.882V136.618C173.882 146.484 176.419 153.754 181.492 158.427C186.566 163.1 194.176 165.177 203.308 165.177C208.889 164.658 214.977 163.1 219.543 161.542Z" fill="white"/>
<defs>
<linearGradient id="paint0_linear_37_256" x1="60.472" y1="3.42969" x2="60.472" y2="217.879" gradientUnits="userSpaceOnUse">
<stop stop-color="#FFB021"/>
<stop offset="1" stop-color="#F56F10"/>
</linearGradient>
<linearGradient id="paint1_linear_37_256" x1="2" y1="111.455" x2="118.944" y2="109.854" gradientUnits="userSpaceOnUse">
<stop stop-color="#F56F10"/>
<stop offset="1" stop-color="#F9C972"/>
</linearGradient>
</defs>
</svg>
